<?xml version="1.0" encoding="UTF-8" standalone="no"?>
<svg
   xmlns:dc="http://purl.org/dc/elements/1.1/"
   xmlns:cc="http://creativecommons.org/ns#"
   xmlns:rdf="http://www.w3.org/1999/02/22-rdf-syntax-ns#"
   xmlns:svg="http://www.w3.org/2000/svg"
   xmlns="http://www.w3.org/2000/svg"
   xmlns:sodipodi="http://sodipodi.sourceforge.net/DTD/sodipodi-0.dtd"
   xmlns:inkscape="http://www.inkscape.org/namespaces/inkscape"
   height="50"
   version="1.1"
   viewBox="0 0 50 50"
   width="50"
   id="svg15"
   sodipodi:docname="social-whatsapp.svg"
   inkscape:version="0.92.1 r15371"
   inkscape:export-filename="/home/lucas/Imagens/SCordon Base/social-whatsapp.png"
   inkscape:export-xdpi="200"
   inkscape:export-ydpi="200">
  <defs
     id="defs96" />
  <metadata
     id="metadata19">
    <rdf:RDF>
      <cc:Work
         rdf:about="">
        <dc:format>image/svg+xml</dc:format>
        <dc:type
           rdf:resource="http://purl.org/dc/dcmitype/StillImage" />
        <dc:title />
      </cc:Work>
    </rdf:RDF>
  </metadata>
  <sodipodi:namedview
     pagecolor="#ffffff"
     bordercolor="#666666"
     borderopacity="1"
     objecttolerance="10"
     gridtolerance="10"
     guidetolerance="10"
     inkscape:pageopacity="0"
     inkscape:pageshadow="2"
     inkscape:window-width="1920"
     inkscape:window-height="1015"
     id="namedview17"
     showgrid="false"
     inkscape:zoom="8.2532985"
     inkscape:cx="-2.8673296"
     inkscape:cy="23.146474"
     inkscape:window-x="0"
     inkscape:window-y="36"
     inkscape:window-maximized="1"
     inkscape:current-layer="svg15"
     showguides="true"
     inkscape:guide-bbox="true" />
  <path
     style="fill:#57ba63;fill-rule:evenodd;stroke:none;stroke-width:0.83333337"
     d="M 0,0 V 50 H 50 C 50,33.333333 50,16.666667 50,0 Z m 25.060222,11.538086 c 7.507691,0 13.59375,6.039425 13.59375,13.489583 0,7.450159 -6.087069,13.489584 -13.595379,13.489584 -2.383691,0 -4.622329,-0.608827 -6.570637,-1.67806 l -7.526042,2.39095 2.452799,-7.236328 c -1.237533,-2.032925 -1.949869,-4.417838 -1.94987,-6.966146 0,-7.450158 6.086762,-13.489583 13.595379,-13.489583 z m -0.0017,2.148437 c -6.302767,0 -11.429036,5.087605 -11.429036,11.341146 0,2.481542 0.809734,4.780541 2.177734,6.650391 l -1.427409,4.210612 4.391277,-1.394857 c 1.804925,1.184917 3.965893,1.875 6.287434,1.875 6.30185,0 11.430664,-5.087612 11.430664,-11.341146 0,-6.253541 -5.128814,-11.341146 -11.430664,-11.341146 z m -4.575195,5.182292 c 0.222158,0 0.443554,0.02767 0.638021,0.02767 0.194767,0 0.472792,-0.109784 0.750326,0.551758 0.277541,0.66215 0.943635,2.289193 1.027018,2.454427 0.08333,0.16585 0.139052,0.358819 0.02767,0.579427 -0.110767,0.220925 -0.166893,0.358533 -0.33366,0.551758 -0.166775,0.192925 -0.349832,0.431119 -0.499674,0.579427 -0.166741,0.164609 -0.340943,0.343061 -0.146484,0.673828 0.194158,0.331383 0.863374,1.41373 1.853841,2.290039 1.273225,1.126458 2.347739,1.475391 2.680664,1.640625 0.333225,0.165533 0.52657,0.137917 0.721028,-0.08301 0.194776,-0.220616 0.834466,-0.964498 1.056315,-1.295573 0.221842,-0.331075 0.444476,-0.276174 0.750326,-0.166016 0.304925,0.109843 1.943477,0.910614 2.277019,1.075847 0.332608,0.165225 0.554329,0.248209 0.63802,0.385742 0.08277,0.13785 0.08354,0.799649 -0.193685,1.572266 -0.278466,0.772 -1.639199,1.517182 -2.249349,1.572265 -0.611075,0.05507 -0.612034,0.496869 -4.000651,-0.826822 -3.387383,-1.324 -5.525273,-4.771554 -5.691731,-4.991863 -0.167075,-0.220308 -1.360678,-1.792521 -1.360678,-3.419596 0,-1.626775 0.86014,-2.426078 1.165365,-2.757161 0.305542,-0.330784 0.668149,-0.415039 0.890299,-0.415039 z"
     id="whatsapp-icon"
     inkscape:label=""
     inkscape:connector-curvature="0"
     sodipodi:nodetypes="cccccssscccsssscccssscscccccccccccccccccsccc" />
</svg>
