<?xml version="1.0" encoding="UTF-8" standalone="no"?>
<svg
   xmlns:dc="http://purl.org/dc/elements/1.1/"
   xmlns:cc="http://creativecommons.org/ns#"
   xmlns:rdf="http://www.w3.org/1999/02/22-rdf-syntax-ns#"
   xmlns:svg="http://www.w3.org/2000/svg"
   xmlns="http://www.w3.org/2000/svg"
   xmlns:xlink="http://www.w3.org/1999/xlink"
   xmlns:sodipodi="http://sodipodi.sourceforge.net/DTD/sodipodi-0.dtd"
   xmlns:inkscape="http://www.inkscape.org/namespaces/inkscape"
   height="149.96532"
   version="1.1"
   viewBox="0 0 150 149.96532"
   width="150"
   id="svg15"
   sodipodi:docname="whatsapp-icon.svg"
   inkscape:version="0.92.1 r15371"
   inkscape:export-filename="/home/lucas/Imagens/SCordon Base/social-whatsapp.png"
   inkscape:export-xdpi="200"
   inkscape:export-ydpi="200">
  <defs
     id="defs96">
    <linearGradient
       inkscape:collect="always"
       id="linearGradient905">
      <stop
         style="stop-color:#44c32e;stop-opacity:1"
         offset="0"
         id="stop901" />
      <stop
         id="stop909"
         offset="0.51807743"
         style="stop-color:#0c9203;stop-opacity:1" />
      <stop
         style="stop-color:#40c029;stop-opacity:1"
         offset="1"
         id="stop903" />
    </linearGradient>
    <linearGradient
       inkscape:collect="always"
       id="linearGradient893">
      <stop
         style="stop-color:#f9f9f9;stop-opacity:1"
         offset="0"
         id="stop889" />
      <stop
         id="stop899"
         offset="0.36237997"
         style="stop-color:#ececec;stop-opacity:1" />
      <stop
         id="stop897"
         offset="0.66269946"
         style="stop-color:#ececec;stop-opacity:1" />
      <stop
         style="stop-color:#f9f9f9;stop-opacity:1"
         offset="1"
         id="stop891" />
    </linearGradient>
    <linearGradient
       inkscape:collect="always"
       xlink:href="#linearGradient893"
       id="linearGradient895"
       x1="25.051205"
       y1="38.405212"
       x2="25.051205"
       y2="12.025663"
       gradientUnits="userSpaceOnUse" />
    <linearGradient
       inkscape:collect="always"
       xlink:href="#linearGradient905"
       id="linearGradient907"
       x1="25.269293"
       y1="13.639796"
       x2="25.269293"
       y2="36.320824"
       gradientUnits="userSpaceOnUse" />
  </defs>
  <metadata
     id="metadata19">
    <rdf:RDF>
      <cc:Work
         rdf:about="">
        <dc:format>image/svg+xml</dc:format>
        <dc:type
           rdf:resource="http://purl.org/dc/dcmitype/StillImage" />
        <dc:title />
      </cc:Work>
    </rdf:RDF>
  </metadata>
  <sodipodi:namedview
     pagecolor="#ffffff"
     bordercolor="#666666"
     borderopacity="1"
     objecttolerance="10"
     gridtolerance="10"
     guidetolerance="10"
     inkscape:pageopacity="0"
     inkscape:pageshadow="2"
     inkscape:window-width="1920"
     inkscape:window-height="1015"
     id="namedview17"
     showgrid="false"
     inkscape:zoom="2.966313"
     inkscape:cx="-27.705508"
     inkscape:cy="83.821206"
     inkscape:window-x="0"
     inkscape:window-y="36"
     inkscape:window-maximized="1"
     inkscape:current-layer="svg15"
     showguides="true"
     inkscape:guide-bbox="true" />
  <g
     id="g914"
     transform="matrix(5.3417578,0,0,5.3417578,-57.283157,-60.837611)"
     inkscape:export-xdpi="192"
     inkscape:export-ydpi="192">
    <path
       sodipodi:nodetypes="sscccsss"
       inkscape:connector-curvature="0"
       id="rect9"
       d="m 25.060547,11.539062 c -7.508617,0 -13.595703,6.038124 -13.595703,13.488282 1e-6,2.548308 0.711685,4.933872 1.949218,6.966797 l -2.453124,7.236328 7.527343,-2.390625 c 1.948308,1.069233 4.186622,1.677734 6.570313,1.677734 7.50831,0 13.595703,-6.040075 13.595703,-13.490234 0,-7.450158 -6.086059,-13.488282 -13.59375,-13.488282 z"
       style="fill:url(#linearGradient895);fill-opacity:1;stroke:#e6e6e6;stroke-width:0.30000001;stroke-linecap:butt;stroke-linejoin:miter;stroke-miterlimit:4;stroke-dasharray:none;stroke-opacity:1;paint-order:stroke markers fill" />
    <path
       sodipodi:nodetypes="ascccssa"
       inkscape:connector-curvature="0"
       id="path12"
       d="m 25.058594,13.685547 c -5.36733,0 -11.429688,5.088256 -11.429688,11.341797 0,2.481542 0.809735,4.78054 2.177735,6.65039 l -1.427735,4.210938 4.392578,-1.394531 c 1.804925,1.184917 3.965569,1.875 6.28711,1.875 6.30185,0 11.429687,-5.088263 11.429687,-11.341797 0,-6.253541 -6.062357,-11.341797 -11.429687,-11.341797 z"
       style="fill:url(#linearGradient907);fill-opacity:1;stroke:none;stroke-width:1px;stroke-linecap:butt;stroke-linejoin:miter;stroke-opacity:1" />
    <path
       sodipodi:nodetypes="ccccccccccccccccccscc"
       id="rect9-6"
       d="m 20.482419,18.869142 c -2.747564,1.225659 -2.268652,4.198629 -0.69336,6.591797 0.166459,0.220309 2.304024,3.668187 5.691407,4.992187 3.388617,1.323691 3.388925,0.881242 4,0.826172 0.61015,-0.05508 1.971534,-0.800266 2.25,-1.572266 0.277225,-0.772617 0.276129,-1.434415 0.193359,-1.572265 -0.08369,-0.137533 -0.306064,-0.221494 -0.638672,-0.386719 -0.333542,-0.165233 -1.972418,-0.964376 -2.277344,-1.074219 -0.305849,-0.110158 -0.528158,-0.165059 -0.75,0.166016 -0.221848,0.331075 -0.861864,1.074306 -1.05664,1.294922 -0.194458,0.220927 -0.387478,0.249517 -0.720703,0.08398 -0.332925,-0.165234 -1.406463,-0.514167 -2.679688,-1.640625 -0.990467,-0.876309 -1.659357,-1.959633 -1.853515,-2.291016 -0.194459,-0.330767 -0.02026,-0.509219 0.146484,-0.673828 0.149842,-0.148308 0.331272,-0.387153 0.498047,-0.580078 0.166767,-0.193225 0.223217,-0.329856 0.333984,-0.550781 0.111382,-0.220608 0.05599,-0.414228 -0.02734,-0.580078 -0.08338,-0.165234 -0.749803,-1.790975 -1.027344,-2.453125 -0.277534,-0.661542 -0.555233,-0.552735 -0.75,-0.552735 -0.194467,0 -0.416514,-0.02734 -0.638672,-0.02734 z"
       style="fill:#fafafa;fill-opacity:1;stroke:none;stroke-width:75.59055328;stroke-linecap:butt;stroke-linejoin:miter;stroke-miterlimit:4;stroke-dasharray:none;stroke-opacity:1;paint-order:stroke markers fill"
       inkscape:connector-curvature="0" />
  </g>
</svg>
